# xmcd
#
# Track frame offsets:
# 150
# 15020
# 33381
# 49433
# 64864
# 79667
# 90440
# 107198
# 119638
# 136307
# 151213
# 162324
# 176232
# 196720
# 211365
# 229476
# 241764
# 256196
# 267192
# 280584
# 292631
# 306112
#
# Disc length: 4286 seconds
#
#
# Revision: 0
# Processed by: cddbd v1.4PL0 Copyright (c) Steve Scherf et al.
# Submitted via: FreeRIP 2.20 
#
DISCID=2610bc16
DTITLE=Alejandro Fernandez - Puro Sentimiento
DYEAR=1900
DGENRE=Folklore
TTITLE0=Abrazame
TTITLE1=Nuve Viajera
TTITLE2=Como Quien Pierde Una Estrella
TTITLE3=La Mitad Que Me Faltaba
TTITLE4=Dentro De Mi Corazon
TTITLE5=Moño Negro
TTITLE6=Me Llevaras En Ti
TTITLE7=Que Sera De Mi
TTITLE8=Cuando Yo Queria Ser Grande
TTITLE9=A Pesar De Todo
TTITLE10=Ojo Por Ojo
TTITLE11=Paso Del Norte
TTITLE12=Si Dios Me Quita La Vida
TTITLE13=No
TTITLE14=Noche De Ronda
TTITLE15=Mitad Tu, Mitad Yo
TTITLE16=Que Bueno
TTITLE17=Que Digan Misa
TTITLE18=Es La Mujer
TTITLE19=Piel De Niña
TTITLE20=Necesito Olvidar
TTITLE21=Que Pregunta Muchacho
EXTD=
EXTT0=
EXTT1=
EXTT2=
EXTT3=
EXTT4=
EXTT5=
EXTT6=
EXTT7=
EXTT8=
EXTT9=
EXTT10=
EXTT11=
EXTT12=
EXTT13=
EXTT14=
EXTT15=
EXTT16=
EXTT17=
EXTT18=
EXTT19=
EXTT20=
EXTT21=
PLAYORDER=
